<svg height="1518" width="720" xmlns="http://www.w3.org/2000/svg">
<rect height="1518" fill="#555" width="720"></rect>
<text fill="#7f7" font-family="Courier New" font-size="12" xml:space="preserve">
<tspan x="10" y="26"></tspan>
<tspan x="10" y="42">&gt; npmdoc-socket.io@0.0.6 test /home/travis/build/npmdoc/node-npmdoc-socket.io</tspan>
<tspan x="10" y="58">&gt; (set -e; export PORT=$(utility2 shServerPortRandom); utility2 test test.js)</tspan>
<tspan x="10" y="74"></tspan>
<tspan x="10" y="90"></tspan>
<tspan x="10" y="106">[MODE_BUILD=npmTest] - 2017-04-11T04:48:11Z - npm-testing /home/travis/build/npmdoc/node-npmdoc-\</tspan>
<tspan x="10" y="122">socket.io</tspan>
<tspan x="10" y="138"></tspan>
<tspan x="10" y="154">merging file:///home/travis/build/npmdoc/node-npmdoc-socket.io/tmp/build/test-report.json to tes\</tspan>
<tspan x="10" y="170">t-report</tspan>
<tspan x="10" y="186">&gt; server listening on http-port 63852</tspan>
<tspan x="10" y="202">created apidoc file:///home/travis/build/npmdoc/node-npmdoc-socket.io/tmp/build/apidoc.html</tspan>
<tspan x="10" y="218"></tspan>
<tspan x="10" y="234"></tspan>
<tspan x="10" y="250">browserTest - created electron entry-page /home/travis/build/npmdoc/node-npmdoc-socket.io/tmp/el\</tspan>
<tspan x="10" y="266">ectron.15b5b5733f60.9330bd80bfdba.html</tspan>
<tspan x="10" y="282"></tspan>
<tspan x="10" y="298">[node test-case 1 of 6 passed] - testCase_buildLib_default</tspan>
<tspan x="10" y="314">[node test-case 2 of 6 passed] - testCase_buildReadme_default</tspan>
<tspan x="10" y="330">[node test-case 3 of 6 passed] - testCase_buildTest_default</tspan>
<tspan x="10" y="346"></tspan>
<tspan x="10" y="362">browserTest - created electron entry-page /home/travis/build/npmdoc/node-npmdoc-socket.io/tmp/el\</tspan>
<tspan x="10" y="378">ectron.15b5b57343c0.21b2caa0ddde6.html</tspan>
<tspan x="10" y="394"></tspan>
<tspan x="10" y="410">Xlib:  extension "RANDR" missing on display ":99.0".</tspan>
<tspan x="10" y="426">Xlib:  extension "RANDR" missing on display ":99.0".</tspan>
<tspan x="10" y="442">merging file:///home/travis/build/npmdoc/node-npmdoc-socket.io/tmp/build/test-report.json to tes\</tspan>
<tspan x="10" y="458">t-report</tspan>
<tspan x="10" y="474">Xlib:  extension "RANDR" missing on display ":99.0".</tspan>
<tspan x="10" y="490">[5690:0411/044814:WARNING:audio_manager.cc(314)] Multiple instances of AudioManager detected</tspan>
<tspan x="10" y="506">[5690:0411/044814:WARNING:audio_manager.cc(275)] Multiple instances of AudioManager detected</tspan>
<tspan x="10" y="522">[5714:0411/044814:ERROR:sandbox_linux.cc(343)] InitializeSandbox() called with multiple threads \</tspan>
<tspan x="10" y="538">in process gpu-process. </tspan>
<tspan x="10" y="554">[5690:0411/044814:ERROR:browser_gpu_channel_host_factory.cc(131)] Failed to create channel.</tspan>
<tspan x="10" y="570">merging file:///home/travis/build/npmdoc/node-npmdoc-socket.io/tmp/build/test-report.json to tes\</tspan>
<tspan x="10" y="586">t-report</tspan>
<tspan x="10" y="602">Xlib:  extension "RANDR" missing on display ":99.0".</tspan>
<tspan x="10" y="618">[5694:0411/044814:WARNING:audio_manager.cc(314)] Multiple instances of AudioManager detected</tspan>
<tspan x="10" y="634">[5694:0411/044814:WARNING:audio_manager.cc(275)] Multiple instances of AudioManager detected</tspan>
<tspan x="10" y="650">[5744:0411/044814:ERROR:sandbox_linux.cc(343)] InitializeSandbox() called with multiple threads \</tspan>
<tspan x="10" y="666">in process gpu-process. </tspan>
<tspan x="10" y="682">[5694:0411/044814:ERROR:browser_gpu_channel_host_factory.cc(131)] Failed to create channel.</tspan>
<tspan x="10" y="698"></tspan>
<tspan x="10" y="714">browserTest - opened url /home/travis/build/npmdoc/node-npmdoc-socket.io/tmp/build/apidoc.html</tspan>
<tspan x="10" y="730"></tspan>
<tspan x="10" y="746"></tspan>
<tspan x="10" y="762">browserTest - opened url http://127.0.0.1:63852?modeTest=1</tspan>
<tspan x="10" y="778"></tspan>
<tspan x="10" y="794">&gt; server listening on http-port 50060</tspan>
<tspan x="10" y="810">[node test-case 4 of 6 passed] - testCase_buildApp_default</tspan>
<tspan x="10" y="826"></tspan>
<tspan x="10" y="842">browserTest - created screenCapture file:///home/travis/build/npmdoc/node-npmdoc-socket.io/tmp/b\</tspan>
<tspan x="10" y="858">uild/screenCapture.npmTest.browser.%2Fhome%2Ftravis%2Fbuild%2Fnpmdoc%2Fnode-npmdoc-socket.io%2Ft\</tspan>
<tspan x="10" y="874">mp%2Fbuild%2Fapidoc.html.png</tspan>
<tspan x="10" y="890"></tspan>
<tspan x="10" y="906">browserTest - created screenCapture file:///home/travis/build/npmdoc/node-npmdoc-socket.io/tmp/b\</tspan>
<tspan x="10" y="922">uild/screenCapture.npmTest.browser.%2Fhome%2Ftravis%2Fbuild%2Fnpmdoc%2Fnode-npmdoc-socket.io%2Ft\</tspan>
<tspan x="10" y="938">mp%2Fbuild%2Fapidoc.html.html</tspan>
<tspan x="10" y="954"></tspan>
<tspan x="10" y="970">browserTest - exit-code 0 - /home/travis/build/npmdoc/node-npmdoc-socket.io/tmp/build/apidoc.htm\</tspan>
<tspan x="10" y="986">l</tspan>
<tspan x="10" y="1002"></tspan>
<tspan x="10" y="1018">[node test-case 5 of 6 passed] - testCase_buildApidoc_default</tspan>
<tspan x="10" y="1034"></tspan>
<tspan x="10" y="1050">browserTest - created screenCapture file:///home/travis/build/npmdoc/node-npmdoc-socket.io/tmp/b\</tspan>
<tspan x="10" y="1066">uild/screenCapture.npmTest.browser.%2F.png</tspan>
<tspan x="10" y="1082"></tspan>
<tspan x="10" y="1098">browserTest - created screenCapture file:///home/travis/build/npmdoc/node-npmdoc-socket.io/tmp/b\</tspan>
<tspan x="10" y="1114">uild/screenCapture.npmTest.browser.%2F.html</tspan>
<tspan x="10" y="1130"></tspan>
<tspan x="10" y="1146">browserTest - exit-code 0 - http://127.0.0.1:63852?modeTest=1</tspan>
<tspan x="10" y="1162"></tspan>
<tspan x="10" y="1178"></tspan>
<tspan x="10" y="1194">browserTest - merging test-report from /home/travis/build/npmdoc/node-npmdoc-socket.io/tmp/test-\</tspan>
<tspan x="10" y="1210">report.npmTest.browser.%2F.json</tspan>
<tspan x="10" y="1226"></tspan>
<tspan x="10" y="1242">[node test-case 6 of 6 passed] - testCase_webpage_default</tspan>
<tspan x="10" y="1258">merging file:///home/travis/build/npmdoc/node-npmdoc-socket.io/tmp/build/test-report.json to tes\</tspan>
<tspan x="10" y="1274">t-report</tspan>
<tspan x="10" y="1290"></tspan>
<tspan x="10" y="1306">-------------------------------------------------------</tspan>
<tspan x="10" y="1322">| test-report - buildCustomOrg - node - linux v6.10.2 - 2017-04-11T04:47:43.433Z</tspan>
<tspan x="10" y="1338">|   45534 ms            0 failed        6 passed      |</tspan>
<tspan x="10" y="1354">-------------------------------------------------------</tspan>
<tspan x="10" y="1370"></tspan>
<tspan x="10" y="1386">created test-report file:///home/travis/build/npmdoc/node-npmdoc-socket.io/tmp/build/test-report\</tspan>
<tspan x="10" y="1402">.html</tspan>
<tspan x="10" y="1418"></tspan>
<tspan x="10" y="1434"></tspan>
<tspan x="10" y="1450">npmTest - 0 failed tests</tspan>
<tspan x="10" y="1466"></tspan>
<tspan x="10" y="1482"></tspan>
<tspan x="10" y="1498">[MODE_BUILD=npmTest] - 2017-04-11T04:48:32Z - EXIT_CODE - 0</tspan>
</text>
</svg>
