<svg height="2078" width="720" xmlns="http://www.w3.org/2000/svg">
<rect height="2078" fill="#555" width="720"></rect>
<text fill="#7f7" font-family="Courier New" font-size="12" xml:space="preserve">
<tspan x="10" y="26"></tspan>
<tspan x="10" y="42">&gt; npmdoc-socket.io@0.0.1 test /home/travis/build/npmdoc/node-npmdoc-socket.io</tspan>
<tspan x="10" y="58">&gt; (set -e; export PORT=$(utility2 shServerPortRandom); utility2 test test.js)</tspan>
<tspan x="10" y="74"></tspan>
<tspan x="10" y="90"></tspan>
<tspan x="10" y="106">[MODE_BUILD=npmTest] - 2017-03-18T13:48:22Z - npm-testing /home/travis/build/npmdoc/node-npmdoc-\</tspan>
<tspan x="10" y="122">socket.io</tspan>
<tspan x="10" y="138"></tspan>
<tspan x="10" y="154"></tspan>
<tspan x="10" y="170">covering $ /home/travis/.nvm/versions/node/v7.7.3/bin/node /home/travis/build/npmdoc/node-npmdoc\</tspan>
<tspan x="10" y="186">-socket.io/test.js</tspan>
<tspan x="10" y="202">merging file:///home/travis/build/npmdoc/node-npmdoc-socket.io/tmp/build/test-report.json to tes\</tspan>
<tspan x="10" y="218">t-report</tspan>
<tspan x="10" y="234">&gt; server listening on http-port 39546</tspan>
<tspan x="10" y="250">apidocCreate - normalizing dir socket.io</tspan>
<tspan x="10" y="266">apidocCreate - normalized dir /home/travis/build/npmdoc/node-npmdoc-socket.io/node_modules/socke\</tspan>
<tspan x="10" y="282">t.io</tspan>
<tspan x="10" y="298">created apidoc file:///home/travis/build/npmdoc/node-npmdoc-socket.io/tmp/build/apidoc.html</tspan>
<tspan x="10" y="314"></tspan>
<tspan x="10" y="330"></tspan>
<tspan x="10" y="346">browserTest - created electron entry-page /home/travis/build/npmdoc/node-npmdoc-socket.io/tmp/el\</tspan>
<tspan x="10" y="362">ectron.15ae1ad1df60.3258e79a739b4.html</tspan>
<tspan x="10" y="378"></tspan>
<tspan x="10" y="394">apidocCreate - normalizing dir socket.io</tspan>
<tspan x="10" y="410">apidocCreate - normalized dir /home/travis/build/npmdoc/node-npmdoc-socket.io/node_modules/socke\</tspan>
<tspan x="10" y="426">t.io</tspan>
<tspan x="10" y="442">[node test-case 1 of 6 passed] - testCase_buildLib_default</tspan>
<tspan x="10" y="458">[node test-case 2 of 6 passed] - testCase_buildReadme_default</tspan>
<tspan x="10" y="474">[node test-case 3 of 6 passed] - testCase_buildTest_default</tspan>
<tspan x="10" y="490"></tspan>
<tspan x="10" y="506">browserTest - created electron entry-page /home/travis/build/npmdoc/node-npmdoc-socket.io/tmp/el\</tspan>
<tspan x="10" y="522">ectron.15ae1ad1e770.aac07b45fd5d3.html</tspan>
<tspan x="10" y="538"></tspan>
<tspan x="10" y="554">Xlib:  extension "RANDR" missing on display ":99.0".</tspan>
<tspan x="10" y="570">(node:4413) DeprecationWarning: node --debug is deprecated. Please use node --inspect instead.</tspan>
<tspan x="10" y="586">Xlib:  extension "RANDR" missing on display ":99.0".</tspan>
<tspan x="10" y="602">&gt; server listening on http-port 47078</tspan>
<tspan x="10" y="618">merging file:///home/travis/build/npmdoc/node-npmdoc-socket.io/tmp/build/test-report.json to tes\</tspan>
<tspan x="10" y="634">t-report</tspan>
<tspan x="10" y="650">Xlib:  extension "RANDR" missing on display ":99.0".</tspan>
<tspan x="10" y="666">[4428:0318/134824:WARNING:audio_manager.cc(314)] Multiple instances of AudioManager detected</tspan>
<tspan x="10" y="682">[4428:0318/134824:WARNING:audio_manager.cc(275)] Multiple instances of AudioManager detected</tspan>
<tspan x="10" y="698">[4471:0318/134824:ERROR:sandbox_linux.cc(343)] InitializeSandbox() called with multiple threads \</tspan>
<tspan x="10" y="714">in process gpu-process. </tspan>
<tspan x="10" y="730">[4428:0318/134824:ERROR:browser_gpu_channel_host_factory.cc(131)] Failed to create channel.</tspan>
<tspan x="10" y="746">merging file:///home/travis/build/npmdoc/node-npmdoc-socket.io/tmp/build/test-report.json to tes\</tspan>
<tspan x="10" y="762">t-report</tspan>
<tspan x="10" y="778">Xlib:  extension "RANDR" missing on display ":99.0".</tspan>
<tspan x="10" y="794">[4448:0318/134824:WARNING:audio_manager.cc(314)] Multiple instances of AudioManager detected</tspan>
<tspan x="10" y="810">[4448:0318/134824:WARNING:audio_manager.cc(275)] Multiple instances of AudioManager detected</tspan>
<tspan x="10" y="826">[4503:0318/134824:ERROR:sandbox_linux.cc(343)] InitializeSandbox() called with multiple threads \</tspan>
<tspan x="10" y="842">in process gpu-process. </tspan>
<tspan x="10" y="858">[4448:0318/134824:ERROR:browser_gpu_channel_host_factory.cc(131)] Failed to create channel.</tspan>
<tspan x="10" y="874"></tspan>
<tspan x="10" y="890">browserTest - opened url file:///home/travis/build/npmdoc/node-npmdoc-socket.io/tmp/build/apidoc\</tspan>
<tspan x="10" y="906">.html</tspan>
<tspan x="10" y="922"></tspan>
<tspan x="10" y="938"></tspan>
<tspan x="10" y="954">browserTest - opened url http://127.0.0.1:39546?modeTest=1</tspan>
<tspan x="10" y="970"></tspan>
<tspan x="10" y="986">[4448:0318/134826:INFO:CONSOLE(203)] "----------|-----------|-----------|-----------|-----------\</tspan>
<tspan x="10" y="1002">|</tspan>
<tspan x="10" y="1018">File      |   % Stmts |% Branches |   % Funcs |   % Lines |</tspan>
<tspan x="10" y="1034">----------|-----------|-----------|-----------|-----------|</tspan>
<tspan x="10" y="1050">----------|-----------|-----------|-----------|-----------|</tspan>
<tspan x="10" y="1066">All files |       100 |       100 |       100 |       100 |</tspan>
<tspan x="10" y="1082">----------|-----------|-----------|-----------|-----------|</tspan>
<tspan x="10" y="1098">", source: file:///home/travis/build/npmdoc/node-npmdoc-socket.io/tmp/electron.15ae1ad1e770.aac0\</tspan>
<tspan x="10" y="1114">7b45fd5d3.html (203)</tspan>
<tspan x="10" y="1130">[4448:0318/134826:INFO:CONSOLE(203)] "created coverage file:///tmp/build/coverage.html/index.htm\</tspan>
<tspan x="10" y="1146">l", source: file:///home/travis/build/npmdoc/node-npmdoc-socket.io/tmp/electron.15ae1ad1e770.aac\</tspan>
<tspan x="10" y="1162">07b45fd5d3.html (203)</tspan>
<tspan x="10" y="1178">[node test-case 4 of 6 passed] - testCase_buildApp_default</tspan>
<tspan x="10" y="1194"></tspan>
<tspan x="10" y="1210">browserTest - created screen-capture file:///home/travis/build/npmdoc/node-npmdoc-socket.io/tmp/\</tspan>
<tspan x="10" y="1226">build/screen-capture.npmTest.browser._2Fhome_2Ftravis_2Fbuild_2Fnpmdoc_2Fnode-npmdoc-socket.io_2\</tspan>
<tspan x="10" y="1242">Ftmp_2Fbuild_2Fapidoc.html.png</tspan>
<tspan x="10" y="1258"></tspan>
<tspan x="10" y="1274"></tspan>
<tspan x="10" y="1290">browserTest - exit-code 0 - file:///home/travis/build/npmdoc/node-npmdoc-socket.io/tmp/build/api\</tspan>
<tspan x="10" y="1306">doc.html</tspan>
<tspan x="10" y="1322"></tspan>
<tspan x="10" y="1338">[node test-case 5 of 6 passed] - testCase_buildApidoc_default</tspan>
<tspan x="10" y="1354"></tspan>
<tspan x="10" y="1370">browserTest - created screen-capture file:///home/travis/build/npmdoc/node-npmdoc-socket.io/tmp/\</tspan>
<tspan x="10" y="1386">build/screen-capture.npmTest.browser..png</tspan>
<tspan x="10" y="1402"></tspan>
<tspan x="10" y="1418"></tspan>
<tspan x="10" y="1434">browserTest - exit-code 0 - http://127.0.0.1:39546?modeTest=1</tspan>
<tspan x="10" y="1450"></tspan>
<tspan x="10" y="1466"></tspan>
<tspan x="10" y="1482">browserTest - merged coverage from /home/travis/build/npmdoc/node-npmdoc-socket.io/tmp/coverage.\</tspan>
<tspan x="10" y="1498">npmTest.browser.%2F.json</tspan>
<tspan x="10" y="1514"></tspan>
<tspan x="10" y="1530"></tspan>
<tspan x="10" y="1546">browserTest - merging test-report from /home/travis/build/npmdoc/node-npmdoc-socket.io/tmp/test-\</tspan>
<tspan x="10" y="1562">report.npmTest.browser.%2F.json</tspan>
<tspan x="10" y="1578"></tspan>
<tspan x="10" y="1594">[node test-case 6 of 6 passed] - testCase_webpage_default</tspan>
<tspan x="10" y="1610">------------------------------|-----------|-----------|-----------|-----------|</tspan>
<tspan x="10" y="1626">File                          |   % Stmts |% Branches |   % Funcs |   % Lines |</tspan>
<tspan x="10" y="1642">------------------------------|-----------|-----------|-----------|-----------|</tspan>
<tspan x="10" y="1658">   node-npmdoc-socket.io/     |       100 |       100 |       100 |       100 |</tspan>
<tspan x="10" y="1674">      example.js              |       100 |       100 |       100 |       100 |</tspan>
<tspan x="10" y="1690">      lib.npmdoc_socket.io.js |       100 |       100 |       100 |       100 |</tspan>
<tspan x="10" y="1706">      test.js                 |       100 |       100 |       100 |       100 |</tspan>
<tspan x="10" y="1722">------------------------------|-----------|-----------|-----------|-----------|</tspan>
<tspan x="10" y="1738">All files                     |       100 |       100 |       100 |       100 |</tspan>
<tspan x="10" y="1754">------------------------------|-----------|-----------|-----------|-----------|</tspan>
<tspan x="10" y="1770"></tspan>
<tspan x="10" y="1786">created coverage file:///home/travis/build/npmdoc/node-npmdoc-socket.io/tmp/build/coverage.html/\</tspan>
<tspan x="10" y="1802">index.html</tspan>
<tspan x="10" y="1818">merging file:///home/travis/build/npmdoc/node-npmdoc-socket.io/tmp/build/test-report.json to tes\</tspan>
<tspan x="10" y="1834">t-report</tspan>
<tspan x="10" y="1850"></tspan>
<tspan x="10" y="1866">-------------------------------------------------------</tspan>
<tspan x="10" y="1882">| test-report - buildNpmdoc - node - linux v7.7.3 - 2017-03-18T13:48:12.671Z</tspan>
<tspan x="10" y="1898">|   16544 ms            0 failed        6 passed      |</tspan>
<tspan x="10" y="1914">-------------------------------------------------------</tspan>
<tspan x="10" y="1930"></tspan>
<tspan x="10" y="1946">created test-report file:///home/travis/build/npmdoc/node-npmdoc-socket.io/tmp/build/test-report\</tspan>
<tspan x="10" y="1962">.html</tspan>
<tspan x="10" y="1978"></tspan>
<tspan x="10" y="1994"></tspan>
<tspan x="10" y="2010">npmTest - 0 failed tests</tspan>
<tspan x="10" y="2026"></tspan>
<tspan x="10" y="2042"></tspan>
<tspan x="10" y="2058">[MODE_BUILD=npmTest] - 2017-03-18T13:48:32Z - EXIT_CODE - 0</tspan>
</text>
</svg>
